:SAMPLES-PER-SECOND 30
:FULLY-SPECIFIED
:DEGREES
376
root  -3.3403 33.8624 -28.0881 -158.673 69.4134 -172.239
RightUpLeg  -31.8018 -21.8848 -0.643622
RightLeg  36.3976 4.88984 3.11652
RightFoot  -1.92068 -0.00760103 0.101887
RightToes  -40.7134 -0.224207 -0.319116
Spine  3.43515 3.14414 -1.4941
Spine1  6.34955 7.20855 -3.04454
HEad  -39.5357 -7.11128 -2.84293
LeftShoulder1  -1.94126e-019 -3.10601e-018 -2.51263e-017
LeftArm  -12.0729 14.6965 -77.0171
LeftForeArm  25.0617 -23.6561 -3.72602
LeftHand  -0.615785 -1.23178 10.946
RightShoulder  -4.96962e-017 0 -2.36833e-017
RightArm  -20.7625 22.3199 55.1986
RightForeArm  71.2871 76.0029 36.9207
RightHand  -0.167811 -3.01438 -7.62241
LeftUpLeg  -35.6568 6.07167 0.486822
LeftLeg  30.9963 9.17695 4.70398
LeftFoot  1.63111 -0.00841019 0.547235
LeftToes  -9.55949 2.25955e-006 -3.67304e-008
377
root  -3.18288 33.8671 -27.9887 -157.528 68.6983 -172.112
RightUpLeg  -31.0759 -20.2502 -1.42544
RightLeg  26.6836 0.841374 0.350354
RightFoot  -1.77538 -0.00488017 0.272402
RightToes  -35.1731 -0.181117 -0.286264
Spine  3.73817 3.16668 -1.4391
Spine1  6.88956 7.38116 -3.11932
HEad  -39.9007 -6.59975 -3.35569
LeftShoulder1  -1.94126e-019 -3.10601e-018 -2.51263e-017
LeftArm  -12.5434 14.4649 -76.303
LeftForeArm  26.5739 -20.2857 -3.14846
LeftHand  -0.636621 -1.13447 11.4712
RightShoulder  -4.96962e-017 0 -2.36833e-017
RightArm  -26.6268 22.8015 55.2623
RightForeArm  86.8778 79.4134 53.7581
RightHand  -0.134294 -4.00787 -10.0598
LeftUpLeg  -36.7396 5.45704 0.900579
LeftLeg  31.2478 9.18095 4.75656
LeftFoot  1.68789 -0.0102303 0.566868
LeftToes  -9.84697 2.25955e-006 -3.67304e-008
378
root  -3.01874 33.8567 -27.8575 -156.373 67.8439 -172.251
RightUpLeg  -30.4422 -19.2964 -1.94278
RightLeg  17.1893 -1.22733 -0.295478
RightFoot  4.38901 0.0119801 0.210537
RightToes  -35.2338 -0.181572 -0.286647
Spine  3.81551 3.24037 -1.33542
Spine1  7.02973 7.58029 -3.00311
HEad  -40.0792 -6.69758 -3.65687
LeftShoulder1  -1.94126e-019 -3.10601e-018 -2.51263e-017
LeftArm  -12.9547 14.2068 -75.9261
LeftForeArm  27.4477 -16.902 -2.6842
LeftHand  -0.645981 -0.955539 11.9509
RightShoulder  -4.96962e-017 0 -2.36833e-017
RightArm  -31.2705 23.3611 57.609
RightForeArm  91.1327 79.8951 57.5182
RightHand  -0.0672995 -4.95335 -13.9364
LeftUpLeg  -38.2396 5.33904 1.11759
LeftLeg  31.6515 8.5865 4.52837
LeftFoot  1.66908 -0.00922122 0.546194
LeftToes  -9.64687 2.25955e-006 -3.67304e-008
379
root  -2.82165 33.7871 -27.6742 -155.633 66.9776 -172.648
RightUpLeg  -30.2651 -19.7581 -1.80902
RightLeg  10.9793 1.26283 0.162548
RightFoot  12.5917 -0.00732699 0.589936
RightToes  -37.8296 -0.201381 -0.302536
Spine  3.80929 3.47641 -1.21887
Spine1  7.0486 8.03315 -2.75101
HEad  -40.3517 -7.62494 -3.85901
LeftShoulder1  -1.94126e-019 -3.10601e-018 -2.51263e-017
LeftArm  -13.4577 13.6187 -75.895
LeftForeArm  27.854 -13.9976 -2.31019
LeftHand  -0.635271 -0.772149 12.0903
RightShoulder  -4.96962e-017 0 -2.36833e-017
RightArm  -33.8188 24.2711 61.0575
RightForeArm  71.5266 75.925 36.4791
RightHand  0.0906187 -5.88261 -23.0046
LeftUpLeg  -39.8471 5.41211 1.28245
LeftLeg  32.5792 7.79073 4.27407
LeftFoot  1.44949 -0.00537945 0.484912
LeftToes  -9.82947 2.25955e-006 -3.67304e-008
380
root  -2.55587 33.6906 -27.4259 -155.231 66.0331 -172.722
RightUpLeg  -29.8227 -20.366 -1.2855
RightLeg  8.7476 4.22651 0.375526
RightFoot  15.3665 -0.123681 1.42543
RightToes  -41.1349 -0.227613 -0.321443
Spine  3.91934 3.7738 -1.02879
Spine1  7.33846 8.56742 -2.2922
HEad  -40.7801 -8.69916 -3.92384
LeftShoulder1  -1.94126e-019 -3.10601e-018 -2.51263e-017
LeftArm  -13.8075 12.8025 -76.0629
LeftForeArm  27.7883 -12.2775 -2.08724
LeftHand  -0.609208 -0.651937 11.8215
RightShoulder  -4.96962e-017 0 -2.36833e-017
RightArm  -34.7027 27.446 64.0761
RightForeArm  53.9655 60.8693 14.9368
RightHand  0.242997 -6.12014 -36.3803
LeftUpLeg  -40.9312 5.56221 1.77508
LeftLeg  33.8286 6.88619 3.97803
LeftFoot  1.0674 -3.50609e-005 0.40344
LeftToes  -10.5703 2.25955e-006 -3.67304e-008
